<?xml version="1.0" standalone="no"?>
<!DOCTYPE svg PUBLIC "-//W3C//DTD SVG 20010904//EN"
 "http://www.w3.org/TR/2001/REC-SVG-20010904/DTD/svg10.dtd">
<svg version="1.0" xmlns="http://www.w3.org/2000/svg"
 width="369.000000pt" height="216.000000pt" viewBox="0 0 369.000000 216.000000"
 preserveAspectRatio="xMidYMid meet">
<metadata>
Created by potrace 1.16, written by Peter Selinger 2001-2019
</metadata>
<g transform="translate(0.000000,216.000000) scale(0.100000,-0.100000)"
fill="#000000" stroke="none">
<path d="M1700 2154 c0 -10 143 -184 152 -184 7 0 158 176 158 185 0 3 -70 5
-155 5 -85 0 -155 -3 -155 -6z M60 2012 c0 -4 66 -74 148 -155 l147 -147 612
0 611 0 92 76 c75 63 89 79 78 90 -7 7 -49 42 -93 78 l-79 66 -758 0 c-417 0
-758 -3 -758 -8z M2035 1954 c-44 -36 -86 -71 -93 -78 -11 -11 3 -27 78 -90
l92 -76 607 0 606 0 155 155 155 155 -760 0 -761 0 -79 -66z M10 1000 l0 -915
150 150 150 150 0 615 0 615 -150 150 -150 150 0 -915z M3522 1757 l-152 -153
0 -605 0 -604 155 -155 155 -155 0 913 c0 501 -1 912 -3 912 -2 0 -71 -69
-155 -153z M1777 1698 l-77 -93 0 -765 0 -765 155 156 155 155 0 608 0 609
-72 86 c-39 47 -74 90 -78 94 -4 4 -41 -34 -83 -85z M1927 162 c-81 -81 -147
-151 -147 -155 0 -4 410 -7 910 -7 501 0 910 3 910 8 0 4 -66 74 -148 155
l-147 147 -615 0 -615 0 -148 -148z"/>
</g>
</svg>
